<svg width="312" height="131" viewBox="0 0 312 131" fill="none" xmlns="http://www.w3.org/2000/svg">
<path d="M57.5507 22.8369H44.2541V59H35.3102V22.8369H22.1925V15.5924H57.5507V22.8369ZM97.364 15.5924V44.183C97.364 48.9332 95.8734 52.6896 92.8921 55.4523C89.9307 58.2149 85.8761 59.5963 80.7284 59.5963C75.6602 59.5963 71.6355 58.2547 68.6542 55.5715C65.6729 52.8883 64.1524 49.2015 64.0928 44.5109V15.5924H73.0367V44.2426C73.0367 47.0848 73.7125 49.1617 75.064 50.4735C76.4354 51.7654 78.3235 52.4113 80.7284 52.4113C85.7569 52.4113 88.3109 49.7679 88.3904 44.4811V15.5924H97.364ZM122.599 43.1097H115.474V59H106.53V15.5924H122.659C127.786 15.5924 131.742 16.7352 134.524 19.0209C137.307 21.3065 138.698 24.5362 138.698 28.7101C138.698 31.6715 138.052 34.1459 136.76 36.1335C135.488 38.1011 133.55 39.6713 130.947 40.8439L140.338 58.5826V59H130.738L122.599 43.1097ZM115.474 35.8652H122.688C124.934 35.8652 126.673 35.2987 127.906 34.1658C129.138 33.0131 129.754 31.433 129.754 29.4256C129.754 27.3784 129.168 25.7685 127.995 24.5959C126.842 23.4232 125.063 22.8369 122.659 22.8369H115.474V35.8652ZM160.951 41.5892L156.301 46.5978V59H147.357V15.5924H156.301V35.2689L160.236 29.8728L171.297 15.5924H182.298L166.884 34.8813L182.745 59H172.102L160.951 41.5892ZM197.456 59H188.512V15.5924H197.456V59ZM230.114 47.6115C230.114 45.9221 229.518 44.6302 228.325 43.7358C227.133 42.8215 224.986 41.8675 221.886 40.8737C218.785 39.8601 216.33 38.8663 214.522 37.8924C209.593 35.2292 207.128 31.6417 207.128 27.13C207.128 24.7847 207.784 22.6978 209.096 20.8693C210.427 19.0209 212.326 17.5799 214.79 16.5464C217.274 15.5129 220.057 14.9961 223.138 14.9961C226.238 14.9961 229.001 15.5625 231.426 16.6954C233.85 17.8085 235.729 19.3885 237.06 21.4357C238.412 23.4829 239.088 25.8083 239.088 28.4119H230.144C230.144 26.4244 229.518 24.8841 228.266 23.7909C227.013 22.6779 225.254 22.1214 222.989 22.1214C220.802 22.1214 219.103 22.5885 217.891 23.5226C216.678 24.4369 216.072 25.6493 216.072 27.1598C216.072 28.5709 216.778 29.7535 218.189 30.7075C219.62 31.6615 221.717 32.5559 224.479 33.3907C229.567 34.9211 233.274 36.8192 235.599 39.085C237.925 41.3507 239.088 44.173 239.088 47.5518C239.088 51.3083 237.667 54.2597 234.824 56.4063C231.982 58.5329 228.156 59.5963 223.346 59.5963C220.007 59.5963 216.966 58.9901 214.224 57.7777C211.481 56.5454 209.384 54.8659 207.933 52.7393C206.502 50.6126 205.787 48.1481 205.787 45.3457H214.76C214.76 50.1356 217.622 52.5306 223.346 52.5306C225.473 52.5306 227.133 52.1033 228.325 51.2486C229.518 50.3741 230.114 49.1617 230.114 47.6115ZM282.329 59H273.386V40.3967H255.945V59H247.001V15.5924H255.945V33.182H273.386V15.5924H282.329V59Z" fill="white"/>
<path d="M37.5624 69.5924L48.7124 101.075L59.8028 69.5924H71.5491V113H62.5754V101.134L63.4698 80.653L51.7533 113H45.6118L33.9252 80.6828L34.8196 101.134V113H25.8757V69.5924H37.5624ZM104.403 104.056H88.7214L85.7401 113H76.2297L92.3883 69.5924H100.676L116.924 113H107.414L104.403 104.056ZM91.1362 96.8116H101.988L96.5323 80.5635L91.1362 96.8116ZM134.574 95.5892L129.923 100.598V113H120.979V69.5924H129.923V89.2689L133.858 83.8728L144.919 69.5924H155.92L140.506 88.8813L156.367 113H145.724L134.574 95.5892ZM184.242 104.056H168.56L165.579 113H156.069L172.227 69.5924H180.515L196.763 113H187.253L184.242 104.056ZM170.975 96.8116H181.827L176.371 80.5635L170.975 96.8116ZM212.505 69.5924L223.655 101.075L234.745 69.5924H246.491V113H237.518V101.134L238.412 80.653L226.696 113H220.554L208.867 80.6828L209.762 101.134V113H200.818V69.5924H212.505ZM276.811 101.611C276.811 99.9221 276.215 98.6302 275.022 97.7358C273.83 96.8215 271.683 95.8675 268.583 94.8737C265.482 93.8601 263.028 92.8663 261.219 91.8924C256.29 89.2292 253.825 85.6417 253.825 81.13C253.825 78.7847 254.481 76.6978 255.793 74.8693C257.125 73.0209 259.023 71.5799 261.487 70.5464C263.972 69.5129 266.754 68.9961 269.835 68.9961C272.935 68.9961 275.698 69.5625 278.123 70.6954C280.548 71.8085 282.426 73.3885 283.758 75.4357C285.109 77.4829 285.785 79.8083 285.785 82.4119H276.841C276.841 80.4244 276.215 78.8841 274.963 77.7909C273.711 76.6779 271.952 76.1214 269.686 76.1214C267.5 76.1214 265.8 76.5885 264.588 77.5226C263.375 78.4369 262.769 79.6493 262.769 81.1598C262.769 82.5709 263.475 83.7535 264.886 84.7075C266.317 85.6615 268.414 86.5559 271.177 87.3907C276.265 88.9211 279.971 90.8192 282.297 93.085C284.622 95.3507 285.785 98.173 285.785 101.552C285.785 105.308 284.364 108.26 281.522 110.406C278.679 112.533 274.853 113.596 270.044 113.596C266.705 113.596 263.664 112.99 260.921 111.778C258.178 110.545 256.081 108.866 254.63 106.739C253.199 104.613 252.484 102.148 252.484 99.3457H261.458C261.458 104.136 264.32 106.531 270.044 106.531C272.17 106.531 273.83 106.103 275.022 105.249C276.215 104.374 276.811 103.162 276.811 101.611Z" fill="white"/>
</svg>
