<svg width="269" height="115" viewBox="0 0 269 115" fill="none" xmlns="http://www.w3.org/2000/svg">
<path d="M36.5507 14.8369H23.2541V51H14.3102V14.8369H1.19252V7.59236H36.5507V14.8369ZM76.364 7.59236V36.183C76.364 40.9332 74.8734 44.6896 71.8921 47.4523C68.9307 50.2149 64.8761 51.5963 59.7284 51.5963C54.6602 51.5963 50.6355 50.2547 47.6542 47.5715C44.6729 44.8883 43.1524 41.2015 43.0928 36.5109V7.59236H52.0367V36.2426C52.0367 39.0848 52.7125 41.1617 54.064 42.4735C55.4354 43.7654 57.3235 44.4113 59.7284 44.4113C64.7569 44.4113 67.3109 41.7679 67.3904 36.4811V7.59236H76.364ZM101.599 35.1097H94.4736V51H85.5297V7.59236H101.659C106.786 7.59236 110.742 8.73519 113.524 11.0209C116.307 13.3065 117.698 16.5362 117.698 20.7101C117.698 23.6715 117.052 26.1459 115.76 28.1335C114.488 30.1011 112.55 31.6713 109.947 32.8439L119.338 50.5826V51H109.738L101.599 35.1097ZM94.4736 27.8652H101.688C103.934 27.8652 105.673 27.2987 106.906 26.1658C108.138 25.0131 108.754 23.433 108.754 21.4256C108.754 19.3784 108.168 17.7685 106.995 16.5959C105.842 15.4232 104.063 14.8369 101.659 14.8369H94.4736V27.8652ZM139.951 33.5892L135.301 38.5978V51H126.357V7.59236H135.301V27.2689L139.236 21.8728L150.297 7.59236H161.298L145.884 26.8813L161.745 51H151.102L139.951 33.5892ZM176.456 51H167.512V7.59236H176.456V51ZM209.114 39.6115C209.114 37.9221 208.518 36.6302 207.325 35.7358C206.133 34.8215 203.986 33.8675 200.886 32.8737C197.785 31.8601 195.33 30.8663 193.522 29.8924C188.593 27.2292 186.128 23.6417 186.128 19.13C186.128 16.7847 186.784 14.6978 188.096 12.8693C189.427 11.0209 191.326 9.57989 193.79 8.54638C196.274 7.51286 199.057 6.9961 202.138 6.9961C205.238 6.9961 208.001 7.56255 210.426 8.69544C212.85 9.80846 214.729 11.3885 216.06 13.4357C217.412 15.4829 218.088 17.8083 218.088 20.4119H209.144C209.144 18.4244 208.518 16.8841 207.266 15.7909C206.013 14.6779 204.254 14.1214 201.989 14.1214C199.802 14.1214 198.103 14.5885 196.891 15.5226C195.678 16.4369 195.072 17.6493 195.072 19.1598C195.072 20.5709 195.778 21.7535 197.189 22.7075C198.62 23.6615 200.717 24.5559 203.479 25.3907C208.567 26.9211 212.274 28.8192 214.599 31.085C216.925 33.3507 218.088 36.173 218.088 39.5518C218.088 43.3083 216.667 46.2597 213.824 48.4063C210.982 50.5329 207.156 51.5963 202.346 51.5963C199.007 51.5963 195.966 50.9901 193.224 49.7777C190.481 48.5454 188.384 46.8659 186.933 44.7393C185.502 42.6126 184.787 40.1481 184.787 37.3457H193.76C193.76 42.1356 196.622 44.5306 202.346 44.5306C204.473 44.5306 206.133 44.1033 207.325 43.2486C208.518 42.3741 209.114 41.1617 209.114 39.6115ZM261.329 51H252.386V32.3967H234.945V51H226.001V7.59236H234.945V25.182H252.386V7.59236H261.329V51Z" fill="white"/>
<path d="M16.5624 61.5924L27.7124 93.0748L38.8028 61.5924H50.5491V105H41.5754V93.1345L42.4698 72.653L30.7533 105H24.6118L12.9252 72.6828L13.8196 93.1345V105H4.87568V61.5924H16.5624ZM83.403 96.0561H67.7214L64.7401 105H55.2297L71.3883 61.5924H79.6763L95.9244 105H86.4141L83.403 96.0561ZM70.1362 88.8116H80.9881L75.5323 72.5635L70.1362 88.8116ZM113.574 87.5892L108.923 92.5978V105H99.979V61.5924H108.923V81.2689L112.858 75.8728L123.919 61.5924H134.92L119.506 80.8813L135.367 105H124.724L113.574 87.5892ZM163.242 96.0561H147.56L144.579 105H135.069L151.227 61.5924H159.515L175.763 105H166.253L163.242 96.0561ZM149.975 88.8116H160.827L155.371 72.5635L149.975 88.8116ZM191.505 61.5924L202.655 93.0748L213.745 61.5924H225.491V105H216.518V93.1345L217.412 72.653L205.696 105H199.554L187.867 72.6828L188.762 93.1345V105H179.818V61.5924H191.505ZM255.811 93.6115C255.811 91.9221 255.215 90.6302 254.022 89.7358C252.83 88.8215 250.683 87.8675 247.583 86.8737C244.482 85.8601 242.028 84.8663 240.219 83.8924C235.29 81.2292 232.825 77.6417 232.825 73.13C232.825 70.7847 233.481 68.6978 234.793 66.8693C236.125 65.0209 238.023 63.5799 240.487 62.5464C242.972 61.5129 245.754 60.9961 248.835 60.9961C251.935 60.9961 254.698 61.5625 257.123 62.6954C259.548 63.8085 261.426 65.3885 262.758 67.4357C264.109 69.4829 264.785 71.8083 264.785 74.4119H255.841C255.841 72.4244 255.215 70.8841 253.963 69.7909C252.711 68.6779 250.952 68.1214 248.686 68.1214C246.5 68.1214 244.8 68.5885 243.588 69.5226C242.375 70.4369 241.769 71.6493 241.769 73.1598C241.769 74.5709 242.475 75.7535 243.886 76.7075C245.317 77.6615 247.414 78.5559 250.177 79.3907C255.265 80.9211 258.971 82.8192 261.297 85.085C263.622 87.3507 264.785 90.173 264.785 93.5518C264.785 97.3083 263.364 100.26 260.522 102.406C257.679 104.533 253.853 105.596 249.044 105.596C245.705 105.596 242.664 104.99 239.921 103.778C237.178 102.545 235.081 100.866 233.63 98.7393C232.199 96.6126 231.484 94.1481 231.484 91.3457H240.458C240.458 96.1356 243.32 98.5306 249.044 98.5306C251.17 98.5306 252.83 98.1033 254.022 97.2486C255.215 96.3741 255.811 95.1617 255.811 93.6115Z" fill="white"/>
</svg>
