<svg width="38" height="36" viewBox="0 0 38 36" fill="none" xmlns="http://www.w3.org/2000/svg">
<path d="M24.2218 9.84402H19.5361C18.1398 9.84402 17.0078 10.976 17.0078 12.3723V18.6578C16.6569 18.5569 16.2879 18.4999 15.9045 18.4999C13.7018 18.4999 11.9158 20.2855 11.9158 22.4886C11.9158 24.6918 13.7014 26.4773 15.9045 26.4773C18.1077 26.4773 19.8932 24.6918 19.8932 22.4886C19.8932 22.3447 19.8848 22.2028 19.87 22.063L19.8932 22.0643V14.7658L24.6875 11.7558C25.6295 11.2677 25.2829 9.84402 24.2218 9.84402Z" fill="#CA1395"/>
<path d="M17.9907 0C8.07071 0 0 8.07029 0 17.9907C0 27.9112 8.07071 35.9815 17.9907 35.9815C22.3282 35.9815 26.3118 34.4383 29.4223 31.8724L29.3978 31.9079L36.8816 33.5115C37.6619 33.6787 38.272 32.8435 37.8755 32.1511L34.2153 25.7604C35.3465 23.4074 35.9815 20.7719 35.9815 17.9907C35.9815 8.07029 27.9108 0 17.9907 0ZM17.9907 31.9083C10.3169 31.9083 4.07357 25.665 4.07357 17.9907C4.07357 10.3169 10.3169 4.07357 17.9907 4.07357C25.6646 4.07357 31.9079 10.3169 31.9079 17.9907C31.9079 25.665 25.6646 31.9083 17.9907 31.9083Z" fill="#CA1395"/>
</svg>
