<svg width="75" height="42" viewBox="0 0 75 42" fill="none" xmlns="http://www.w3.org/2000/svg">
<path d="M7.78467 40.2459H0.800563C0.358652 40.2459 0 40.6037 0 41.0465C0 41.4892 0.358652 41.847 0.800563 41.847H9.31054C8.65568 41.4435 8.13452 40.8983 7.78467 40.2459Z" fill="#CA1395"/>
<path d="M74.1994 40.2459H17.9439C17.3267 40.8951 16.5477 41.4355 15.6775 41.847H74.1994C74.6421 41.847 75 41.4892 75 41.0465C75 40.6037 74.6421 40.2459 74.1994 40.2459Z" fill="#CA1395"/>
<path d="M39.8578 9.8221H50.7366V8.22098H39.7449C39.8121 8.43473 39.8578 8.65808 39.8578 8.89425V9.8221Z" fill="#CA1395"/>
<path d="M65.9456 8.22098H55.2861V9.8221H65.9456V8.22098Z" fill="#CA1395"/>
<path d="M74.9999 9.02154C74.9999 8.57883 74.642 8.22098 74.1993 8.22098H70.4951V9.8221H74.1993C74.642 9.8221 74.9999 9.46425 74.9999 9.02154Z" fill="#CA1395"/>
<path d="M0.800563 9.8221H35.3096V8.89425C35.3096 8.65808 35.356 8.43553 35.4233 8.22098H0.800563C0.358652 8.22098 0 8.57883 0 9.02154C0 9.46425 0.358652 9.8221 0.800563 9.8221Z" fill="#CA1395"/>
<path d="M55.2861 17.8285H60.0351C60.7147 17.1657 61.5569 16.6149 62.5 16.2274H55.2861V17.8285Z" fill="#CA1395"/>
<path d="M47.2901 16.2274H39.8577V17.8285H44.8268C45.5072 17.1665 46.3478 16.6149 47.2901 16.2274Z" fill="#CA1395"/>
<path d="M74.1993 16.2274H70.4951V17.8285H74.1993C74.642 17.8285 74.9999 17.4707 74.9999 17.028C74.9999 16.5853 74.642 16.2274 74.1993 16.2274Z" fill="#CA1395"/>
<path d="M35.3094 17.8285V16.2274H26.1301C26.3679 16.5869 26.5088 17.0168 26.5088 17.4795C26.5088 17.5988 26.4912 17.714 26.4736 17.8285H35.3094Z" fill="#CA1395"/>
<path d="M0.800563 17.8285H14.9313V17.4795C14.9313 17.0168 15.0714 16.5869 15.31 16.2274H0.800563C0.358652 16.2274 0 16.5853 0 17.028C0 17.4707 0.358652 17.8285 0.800563 17.8285Z" fill="#CA1395"/>
<path d="M39.8577 25.835H63.3382C62.8786 25.835 62.4295 25.7885 62.002 25.6989C60.9181 25.4715 60.0102 24.9551 59.3626 24.2338H52.8556C52.2976 24.6517 51.6692 25.0064 50.9895 25.2746C49.6037 25.8197 48.0963 25.9718 46.7937 25.6989C45.709 25.4715 44.8011 24.9551 44.1535 24.2338H39.8577V25.835V25.835Z" fill="#CA1395"/>
<path d="M74.1994 24.2338H68.0655C67.5075 24.6517 66.8783 25.0064 66.1986 25.2746C65.2691 25.6412 64.2804 25.835 63.3406 25.835H74.1994C74.6421 25.835 75 25.4771 75 25.0344C75 24.5917 74.6421 24.2338 74.1994 24.2338Z" fill="#CA1395"/>
<path d="M19.48 25.835H29.6431C30.3076 25.2441 31.0929 24.7422 31.976 24.3947C32.1345 24.3323 32.2962 24.2859 32.4563 24.2338H19.48V25.835Z" fill="#CA1395"/>
<path d="M0.800563 25.835H14.9313V24.2338H0.800563C0.358652 24.2338 0 24.5917 0 25.0344C0 25.4771 0.358652 25.835 0.800563 25.835Z" fill="#CA1395"/>
<path d="M0.800563 33.8406H10.0062C10.4962 33.506 11.0237 33.2065 11.5978 32.9808C12.6929 32.5477 13.8465 32.3603 14.9313 32.4364V32.2395H0.800563C0.358652 32.2395 0 32.5973 0 33.04C0 33.4827 0.358652 33.8406 0.800563 33.8406Z" fill="#CA1395"/>
<path d="M19.48 33.8406H31.0641C30.0098 33.558 29.1364 33.0016 28.5399 32.2395H19.48V33.8406Z" fill="#CA1395"/>
<path d="M74.1993 32.2395H37.6857C37.0652 32.7494 36.3519 33.1841 35.5618 33.4955C35.1927 33.6404 34.8148 33.7509 34.4346 33.8406H74.1993C74.642 33.8406 74.9999 33.4827 74.9999 33.04C74.9999 32.5973 74.642 32.2395 74.1993 32.2395Z" fill="#CA1395"/>
<path d="M32.563 25.8854C31.4558 26.3217 30.5207 27.0254 29.9291 27.866C29.279 28.7922 29.1085 29.7793 29.4504 30.6471C29.7922 31.5149 30.5904 32.1218 31.6975 32.3547C32.0194 32.4228 32.3564 32.4564 32.7031 32.4564C33.442 32.4564 34.2209 32.3043 34.9751 32.0081C36.0822 31.5718 37.0173 30.8681 37.6081 30.0267C37.9716 29.5095 38.1797 28.9732 38.2373 28.4488C38.2421 28.4152 38.2574 28.3856 38.2574 28.3511V28.2639C38.2574 28.2623 38.2574 28.2599 38.2574 28.2583V8.89505C38.2574 8.52279 37.9563 8.22178 37.5841 8.22178C37.2118 8.22178 36.9108 8.52279 36.9108 8.89505V25.9326C36.5986 25.7565 36.2399 25.622 35.8405 25.5379C34.8333 25.3258 33.6693 25.4483 32.563 25.8854Z" fill="#CA1395"/>
<path d="M48.2849 17.6636C47.1777 18.0999 46.2426 18.8036 45.651 19.6442C45.001 20.5705 44.8305 21.5575 45.1723 22.4254C45.5141 23.2932 46.3123 23.9 47.4195 24.133C47.7413 24.201 48.0783 24.2346 48.425 24.2346C49.1639 24.2346 49.9428 24.0825 50.697 23.7863C51.8042 23.35 52.7392 22.6463 53.33 21.8049C53.6935 21.2878 53.9016 20.7514 53.9593 20.227C53.9641 20.1934 53.9793 20.1638 53.9793 20.1293V20.0421C53.9793 20.0405 53.9793 20.0381 53.9793 20.0365V1.34655H67.841V17.7108C67.5288 17.5347 67.1702 17.4002 66.7707 17.3162C65.7644 17.104 64.6003 17.2273 63.494 17.6644C62.3868 18.1007 61.4517 18.8044 60.8601 19.645C60.2101 20.5713 60.0395 21.5583 60.3814 22.4262C60.7232 23.294 61.5214 23.9008 62.6286 24.1338C62.9504 24.2018 63.2874 24.2354 63.6341 24.2354C64.373 24.2354 65.1519 24.0833 65.9061 23.7871C67.0132 23.3508 67.9483 22.6471 68.5391 21.8057C68.9026 21.2886 69.1107 20.7522 69.1684 20.2278C69.1732 20.1942 69.1884 20.1646 69.1884 20.1301V20.0429C69.1884 20.0413 69.1884 20.0389 69.1884 20.0373V0.673273C69.1884 0.345843 68.9506 0.0856599 68.6408 0.0256177V0H53.306C52.9337 0 52.6327 0.301011 52.6327 0.673273V17.7108C52.3205 17.5347 51.9627 17.4002 51.5624 17.3162C50.5553 17.104 49.3913 17.2273 48.2849 17.6636Z" fill="#CA1395"/>
<path d="M17.3292 38.8041C17.6927 38.287 17.9008 37.7506 17.9585 37.2262C17.9633 37.1926 17.9785 37.163 17.9785 37.1285V37.0413C17.9785 37.0397 17.9785 37.0373 17.9785 37.0357V18.3465H24.3341C24.7064 18.3465 25.0074 18.0455 25.0074 17.6733C25.0074 17.301 24.7064 17 24.3341 17H17.3052C16.9329 17 16.6319 17.301 16.6319 17.6733V34.7109C16.3197 34.5347 15.9619 34.4002 15.5616 34.3162C14.5553 34.104 13.3913 34.2273 12.2849 34.6644C11.1777 35.1007 10.2426 35.8044 9.65103 36.645C9.00097 37.5713 8.83045 38.5592 9.17229 39.4262C9.51413 40.294 10.3123 40.9008 11.4195 41.1338C11.7413 41.2018 12.0783 41.2346 12.425 41.2346C13.1631 41.2346 13.9428 41.0825 14.697 40.7863C15.8034 40.3492 16.7384 39.6455 17.3292 38.8041Z" fill="#CA1395"/>
</svg>
