<svg width="40" height="39" viewBox="0 0 40 39" fill="none" xmlns="http://www.w3.org/2000/svg">
<path d="M8.93299e-06 13.9546C0.0026238 16.59 0.771005 19.1707 2.21602 21.3973C3.66104 23.624 5.72347 25.4053 8.16408 26.5346C10.6047 27.6639 13.3234 28.095 16.005 27.7778C18.6865 27.4606 21.221 26.4082 23.3143 24.7426L25.8429 27.1957L25.7143 27.3211C25.1821 27.8434 24.8835 28.55 24.8835 29.2864C24.8835 30.0229 25.1821 30.7294 25.7143 31.2517L32.2714 37.6492C33.0567 38.435 34.1106 38.9118 35.2327 38.9889C36.3548 39.066 37.4668 38.7381 38.3571 38.0674C38.8447 37.6741 39.2426 37.1858 39.5255 36.6338C39.8084 36.0817 39.97 35.4781 40 34.8616L40 34.6386C39.9952 33.4857 39.5287 32.3803 38.7 31.5583L32.0143 25.105C31.479 24.5858 30.7548 24.2944 30 24.2944C29.2452 24.2944 28.521 24.5858 27.9857 25.105L27.8571 25.2304L25.3429 22.7634C26.7927 21.0343 27.7953 18.9904 28.2661 16.8041C28.737 14.6178 28.6623 12.3531 28.0483 10.2009C27.4344 8.04864 26.2992 6.07192 24.7384 4.4373C23.1776 2.80268 21.2369 1.55806 19.0799 0.808327C16.923 0.0585908 14.6129 -0.174295 12.3444 0.1293C10.0758 0.432895 7.91534 1.26407 6.04495 2.55279C4.17456 3.8415 2.64907 5.54999 1.59705 7.53428C0.545029 9.51857 -0.00270394 11.7205 8.93299e-06 13.9546V13.9546ZM36.6714 33.5933C36.8346 33.7447 36.9615 33.9294 37.043 34.1342C37.1245 34.339 37.1586 34.5588 37.1429 34.778C37.1297 34.9967 37.0694 35.2103 36.966 35.4048C36.8627 35.5993 36.7185 35.7704 36.5429 35.907C36.2013 36.1388 35.786 36.2438 35.372 36.2029C34.958 36.162 34.5727 35.9779 34.2857 35.684L27.7286 29.2864L30 27.0703L36.6714 33.5933ZM25.7143 13.9546C25.7143 16.1599 25.044 18.3157 23.7882 20.1494C22.5324 21.9831 20.7475 23.4123 18.6592 24.2562C16.5709 25.1002 14.273 25.321 12.0561 24.8907C9.83919 24.4605 7.80282 23.3985 6.2045 21.8391C4.60619 20.2797 3.51772 18.2929 3.07675 16.1299C2.63577 13.9669 2.8621 11.7249 3.7271 9.68747C4.5921 7.65 6.05693 5.90854 7.93635 4.68331C9.81576 3.45809 12.0254 2.80412 14.2857 2.80412C17.3168 2.80412 20.2237 3.9789 22.3669 6.07001C24.5102 8.16112 25.7143 10.9973 25.7143 13.9546Z" fill="#CA1395"/>
</svg>
